<?xml version="1.0" encoding="UTF-8" standalone="no"?>
<!-- Created with Inkscape (http://www.inkscape.org/) -->

<svg
   width="512"
   height="512"
   version="1.1"
   viewBox="0 0 135.46998 135.46998"
   xml:space="preserve"
   id="svg3787"
   sodipodi:docname="Mousepaste.svg"
   inkscape:version="1.2 (dc2aeda, 2022-05-15)"
   xmlns:inkscape="http://www.inkscape.org/namespaces/inkscape"
   xmlns:sodipodi="http://sodipodi.sourceforge.net/DTD/sodipodi-0.dtd"
   xmlns="http://www.w3.org/2000/svg"
   xmlns:svg="http://www.w3.org/2000/svg"><defs
     id="defs3791" /><sodipodi:namedview
     id="namedview3789"
     pagecolor="#ffffff"
     bordercolor="#000000"
     borderopacity="0.25"
     inkscape:showpageshadow="2"
     inkscape:pageopacity="0.0"
     inkscape:pagecheckerboard="true"
     inkscape:deskcolor="#d1d1d1"
     showgrid="false"
     inkscape:zoom="0.74121094"
     inkscape:cx="321.77075"
     inkscape:cy="387.20422"
     inkscape:window-width="1390"
     inkscape:window-height="1052"
     inkscape:window-x="64"
     inkscape:window-y="0"
     inkscape:window-maximized="0"
     inkscape:current-layer="svg3787" /><path
     d="m 52.746377,2.1436239 c -15.471875,0 -26.560659,11.6985731 -26.560659,28.9052401 v 75.619086 c 0,11.37446 12.820047,26.8118 37.808759,26.8118 h 9.801324 c 24.292206,0 37.808759,-15.43774 37.808759,-26.8118 V 31.048864 c 0,-16.126787 -11.08918,-28.9052401 -26.560659,-28.9052401 z m 2.846653,5.169064 h 26.604609 c 12.744707,0 21.879351,10.5268701 21.879351,23.8111241 v 68.163517 c 0,9.369691 -11.134306,21.552871 -31.14466,21.552871 h -8.073989 c -20.58404,0 -31.144657,-12.18318 -31.144657,-21.552871 V 31.123812 c 0,-14.173821 9.135034,-23.8111241 21.879739,-23.8111241 z"
     fill="#999999"
     stroke-linejoin="round"
     stroke-width="2.59729"
     id="path3761"
     style="stroke:#cccccc;fill:#e6e6e6" /><path
     d="m 50.559597,15.948183 h 13.649704 l 4.554878,5.527522 4.554877,-5.527522 H 86.968759 M 68.76429,21.750738 v 6.197505"
     id="path3763"
     style="fill:none;stroke:#cccccc;stroke-width:6.53377;stroke-linejoin:bevel" /><path
     d="m 50.559597,107.90119 h 13.649704 l 4.554878,-5.52753 4.554877,5.52753 H 86.968759 M 68.76429,86.93678 v 16.73496"
     id="path3765"
     style="fill:none;stroke:#cccccc;stroke-width:6.53377;stroke-linejoin:bevel" /><rect
     x="55.560032"
     y="36.22224"
     width="26.16115"
     height="42.357307"
     rx="13.080835"
     ry="12.173579"
     stroke-width="7.36414"
     id="rect3769"
     style="fill:none;stroke:#cccccc" /><path
     d="m 54.226112,48.408442 c 10.050836,-3.963541 19.574356,-3.184654 28.83109,0"
     stroke-width="4.26994"
     id="path3771"
     style="fill:none;stroke:#cccccc" /><path
     d="m 54.226112,56.957685 h 28.83109"
     stroke-width="6.31254"
     id="path3773"
     style="fill:none;stroke:#cccccc" /><path
     d="m 54.226112,66.636805 c 9.195768,2.48864 18.839653,2.287008 28.83109,0"
     stroke-width="4.26994"
     id="path3775"
     style="fill:none;stroke:#cccccc" /><text
     x="48.105091"
     y="95.598358"
     fill="#000000"
     font-family="sans-serif"
     font-size="21.34px"
     font-weight="bold"
     stroke-linejoin="round"
     stroke-width="2.41964"
     xml:space="preserve"
     id="text3783"><tspan
       x="48.105091"
       y="95.598358"
       fill="#000000"
       font-size="21.34px"
       id="tspan3781"
       style="stroke-width:7.31833" /></text></svg>
